<?xml version="1.0" encoding="UTF-8"?>
<svg xmlns="http://www.w3.org/2000/svg" xmlns:xlink="http://www.w3.org/1999/xlink" width="400" height="158" viewBox="0 0 400 158">
<path fill-rule="nonzero" fill="rgb(0%, 0%, 100%)" fill-opacity="1" stroke-width="0.06" stroke-linecap="butt" stroke-linejoin="miter" stroke="rgb(0%, 0%, 0%)" stroke-opacity="1" stroke-miterlimit="10" d="M -0.100013 0.0500131 C -0.100013 0.0223906 -0.0775906 -0.000000857583 -0.0499797 -0.000000857583 L 0.0500219 -0.000000857583 C 0.0776328 -0.000000857583 0.0999906 0.0223906 0.0999906 0.0500131 L 0.0999906 0.750017 C 0.0999906 0.77764 0.122413 0.800031 0.150023 0.800031 L 0.450028 0.800031 C 0.477639 0.800031 0.499997 0.822359 0.499997 0.849981 L 0.499997 0.950009 C 0.499997 0.977632 0.477639 1.000023 0.450028 1.000023 L -0.449986 1.000023 C -0.477597 1.000023 -0.500019 0.977632 -0.500019 0.950009 L -0.500019 0.849981 C -0.500019 0.822359 -0.477597 0.800031 -0.449986 0.800031 L -0.149981 0.800031 C -0.12237 0.800031 -0.100013 0.77764 -0.100013 0.750017 Z M -0.100013 0.0500131 " transform="matrix(60.97561, 0, 0, -61.232893, 32.317073, 82.683541)"/>
<path fill-rule="nonzero" fill="rgb(0%, 0%, 0%)" fill-opacity="1" d="M 30.515625 82.683594 L 34.128906 82.683594 L 34.144531 85.746094 L 30.488281 85.746094 Z M 30.515625 82.683594 "/>
<path fill-rule="nonzero" fill="rgb(0%, 0%, 0%)" fill-opacity="1" d="M 34.238281 21.449219 L 30.332031 21.449219 L 30.488281 9.203125 L 34.144531 9.203125 Z M 34.238281 21.449219 "/>
<path fill-rule="nonzero" fill="rgb(0%, 0%, 0%)" fill-opacity="1" d="M 52.304688 21.449219 L 48.886719 21.449219 L 48.78125 9.203125 L 52.4375 9.203125 Z M 52.304688 21.449219 "/>
<path fill-rule="nonzero" fill="rgb(0%, 0%, 0%)" fill-opacity="1" d="M 15.683594 21.449219 L 12.265625 21.449219 L 12.195312 9.203125 L 15.855469 9.203125 Z M 15.683594 21.449219 "/>
<path fill-rule="nonzero" fill="rgb(100%, 100%, 0%)" fill-opacity="1" stroke-width="0.06" stroke-linecap="butt" stroke-linejoin="miter" stroke="rgb(0%, 0%, 0%)" stroke-opacity="1" stroke-miterlimit="10" d="M -0.500002 0.0500131 C -0.500002 0.0223906 -0.477644 -0.000000857583 -0.449969 -0.000000857583 L 0.449981 -0.000000857583 C 0.477592 -0.000000857583 0.500014 0.0223906 0.500014 0.0500131 L 0.500014 0.149977 C 0.500014 0.1776 0.477592 0.199991 0.449981 0.199991 L -0.190003 0.199991 C -0.217614 0.199991 -0.239972 0.222383 -0.239972 0.250005 L -0.239972 0.349969 C -0.239972 0.377592 -0.217614 0.399983 -0.190003 0.399983 L 0.449981 0.399983 C 0.477592 0.399983 0.500014 0.422375 0.500014 0.449997 L 0.500014 0.550025 C 0.500014 0.577584 0.477592 0.599975 0.449981 0.599975 L -0.190003 0.599975 C -0.217614 0.599975 -0.239972 0.622367 -0.239972 0.649989 L -0.239972 0.750017 C -0.239972 0.77764 -0.217614 0.800031 -0.190003 0.800031 L 0.449981 0.800031 C 0.477592 0.800031 0.500014 0.822359 0.500014 0.849981 L 0.500014 0.950009 C 0.500014 0.977632 0.477592 1.000023 0.449981 1.000023 L -0.449969 1.000023 C -0.477644 1.000023 -0.500002 0.977632 -0.500002 0.950009 Z M -0.500002 0.0500131 " transform="matrix(60.97561, 0, 0, -61.232893, 99.390244, 82.683541)"/>
<path fill-rule="nonzero" fill="rgb(0%, 0%, 0%)" fill-opacity="1" d="M 100.945312 21.449219 L 97.285156 21.449219 L 97.5625 18.390625 L 101.21875 18.390625 Z M 100.945312 21.449219 "/>
<path fill-rule="nonzero" fill="rgb(0%, 100%, 89%)" fill-opacity="1" stroke-width="0.06" stroke-linecap="butt" stroke-linejoin="miter" stroke="rgb(0%, 0%, 0%)" stroke-opacity="1" stroke-miterlimit="10" d="M -0.499984 0.0500131 C -0.499984 0.0223906 -0.477627 -0.000000857583 -0.450016 -0.000000857583 L -0.350014 -0.000000857583 C -0.322403 -0.000000857583 -0.299981 0.0223906 -0.299981 0.0500131 L -0.299981 0.630022 C -0.299981 0.647438 -0.278456 0.655539 -0.266925 0.642526 L 0.266908 0.0375096 C 0.28792 0.0136509 0.318222 -0.000000857583 0.349997 -0.000000857583 L 0.449998 -0.000000857583 C 0.477609 -0.000000857583 0.500031 0.0223906 0.500031 0.0500131 L 0.500031 0.950009 C 0.500031 0.977632 0.477609 1.000023 0.449998 1.000023 L 0.349997 1.000023 C 0.322386 1.000023 0.300028 0.977632 0.300028 0.950009 L 0.300028 0.37 C 0.300028 0.352585 0.278439 0.344419 0.266908 0.357497 L -0.266925 0.962513 C -0.287938 0.986372 -0.318239 1.000023 -0.350014 1.000023 L -0.450016 1.000023 C -0.477627 1.000023 -0.499984 0.977632 -0.499984 0.950009 Z M -0.499984 0.0500131 " transform="matrix(60.97561, 0, 0, -61.232893, 166.463415, 82.683541)"/>
<path fill-rule="nonzero" fill="rgb(0%, 0%, 0%)" fill-opacity="1" d="M 167.652344 43.625 L 167.628906 43.59375 L 167.601562 43.566406 L 167.574219 43.535156 L 167.550781 43.507812 L 167.523438 43.476562 L 167.5 43.449219 L 167.445312 43.386719 L 167.421875 43.359375 L 167.394531 43.328125 L 167.367188 43.300781 L 167.34375 43.269531 L 167.316406 43.242188 L 167.292969 43.210938 L 167.265625 43.183594 L 167.238281 43.152344 L 167.214844 43.125 L 167.1875 43.09375 L 167.160156 43.066406 L 167.136719 43.035156 L 167.109375 43.003906 L 167.082031 42.976562 L 167.058594 42.945312 L 167.03125 42.917969 L 167.007812 42.886719 L 166.980469 42.859375 L 166.953125 42.828125 L 166.929688 42.800781 L 166.902344 42.769531 L 166.875 42.742188 L 166.851562 42.710938 L 166.824219 42.679688 L 166.800781 42.652344 L 166.773438 42.621094 L 166.746094 42.59375 L 166.722656 42.5625 L 166.695312 42.535156 L 166.667969 42.503906 L 166.644531 42.476562 L 166.617188 42.445312 L 166.59375 42.417969 L 166.539062 42.355469 L 166.515625 42.328125 L 166.488281 42.296875 L 166.460938 42.269531 L 166.4375 42.238281 L 166.410156 42.210938 L 166.386719 42.179688 L 166.359375 42.152344 L 166.332031 42.121094 L 166.308594 42.09375 L 166.253906 42.03125 L 166.230469 42.003906 L 166.203125 41.972656 L 166.175781 41.945312 L 166.152344 41.914062 L 166.125 41.886719 L 166.101562 41.855469 L 166.074219 41.828125 L 166.046875 41.796875 L 166.023438 41.769531 L 165.96875 41.707031 L 165.945312 41.679688 L 165.917969 41.648438 L 165.894531 41.621094 L 165.867188 41.589844 L 165.839844 41.5625 L 165.816406 41.53125 L 165.789062 41.503906 L 165.761719 41.472656 L 165.738281 41.445312 L 165.710938 41.414062 L 165.6875 41.382812 L 165.660156 41.355469 L 165.632812 41.324219 L 165.609375 41.296875 L 165.582031 41.265625 L 165.554688 41.238281 L 165.53125 41.207031 L 165.503906 41.179688 L 165.476562 41.148438 L 165.453125 41.121094 L 165.425781 41.089844 L 165.402344 41.058594 L 165.375 41.03125 L 165.347656 41 L 165.324219 40.972656 L 165.296875 40.941406 L 165.269531 40.914062 L 165.246094 40.882812 L 165.21875 40.855469 L 165.195312 40.824219 L 165.167969 40.796875 L 165.140625 40.765625 L 165.117188 40.734375 L 165.089844 40.707031 L 167.539062 38.867188 L 169.960938 41.621094 Z M 167.652344 43.625 "/>
<path fill-rule="nonzero" fill="rgb(0%, 0%, 0%)" fill-opacity="1" d="M 184.757812 32.121094 L 184.757812 35.871094 L 181.707031 35.777344 L 181.707031 32.105469 Z M 184.757812 32.121094 "/>
<path fill-rule="nonzero" fill="rgb(58%, 0%, 100%)" fill-opacity="1" stroke-width="0.06" stroke-linecap="butt" stroke-linejoin="miter" stroke="rgb(0%, 0%, 0%)" stroke-opacity="1" stroke-miterlimit="10" d="M -0.500031 0.0500131 C -0.500031 0.0223906 -0.477609 -0.000000857583 -0.449998 -0.000000857583 L 0.450016 -0.000000857583 C 0.477627 -0.000000857583 0.499984 0.0223906 0.499984 0.0500131 L 0.499984 0.550025 C 0.499984 0.577584 0.477627 0.599975 0.450016 0.599975 L -0.249995 0.599975 C -0.277606 0.599975 -0.300028 0.622367 -0.300028 0.649989 L -0.300028 0.750017 C -0.300028 0.77764 -0.277606 0.800031 -0.249995 0.800031 L 0.450016 0.800031 C 0.477627 0.800031 0.499984 0.822359 0.499984 0.849981 L 0.499984 0.950009 C 0.499984 0.977632 0.477627 1.000023 0.450016 1.000023 L -0.449998 1.000023 C -0.477609 1.000023 -0.500031 0.977632 -0.500031 0.950009 L -0.500031 0.449997 C -0.500031 0.422375 -0.477609 0.399983 -0.449998 0.399983 L 0.250013 0.399983 C 0.277623 0.399983 0.299981 0.377592 0.299981 0.349969 L 0.299981 0.250005 C 0.299981 0.222383 0.277623 0.199991 0.250013 0.199991 L -0.449998 0.199991 C -0.477609 0.199991 -0.500031 0.1776 -0.500031 0.149977 Z M -0.500031 0.0500131 " transform="matrix(60.97561, 0, 0, -61.232893, 233.536585, 82.683541)"/>
<path fill-rule="nonzero" fill="rgb(0%, 0%, 0%)" fill-opacity="1" d="M 235.09375 21.449219 L 231.429688 21.449219 L 231.707031 18.390625 L 235.367188 18.390625 Z M 235.09375 21.449219 "/>
<path fill-rule="nonzero" fill="rgb(0%, 0%, 0%)" fill-opacity="1" d="M 213.304688 82.683594 L 216.964844 82.683594 L 217.074219 85.746094 L 213.414062 85.746094 Z M 213.304688 82.683594 "/>
<path fill-rule="evenodd" fill="rgb(0%, 72%, 8%)" fill-opacity="1" stroke-width="0.06" stroke-linecap="butt" stroke-linejoin="miter" stroke="rgb(0%, 0%, 0%)" stroke-opacity="1" stroke-miterlimit="10" d="M -0.500014 0.0500131 C -0.500014 0.0223906 -0.477592 -0.000000857583 -0.449981 -0.000000857583 L 0.449969 -0.000000857583 C 0.477644 -0.000000857583 0.500002 0.0223906 0.500002 0.0500131 L 0.500002 0.950009 C 0.500002 0.977632 0.477644 1.000023 0.449969 1.000023 L -0.449981 1.000023 C -0.477592 1.000023 -0.500014 0.977632 -0.500014 0.950009 Z M -0.300011 0.260021 C -0.300011 0.226848 -0.273169 0.199991 -0.239984 0.199991 L 0.239972 0.199991 C 0.273156 0.199991 0.299998 0.226848 0.299998 0.260021 L 0.299998 0.740002 C 0.299998 0.77311 0.273156 0.800031 0.239972 0.800031 L -0.239984 0.800031 C -0.273169 0.800031 -0.300011 0.77311 -0.300011 0.740002 Z M -0.300011 0.260021 " transform="matrix(60.97561, 0, 0, -61.232893, 300.609756, 82.683541)"/>
<path fill-rule="evenodd" fill="rgb(0%, 0%, 0%)" fill-opacity="1" d="M 298.6875 82.683594 L 302.347656 82.683594 L 302.4375 85.746094 L 298.78125 85.746094 Z M 298.6875 82.683594 "/>
<path fill-rule="evenodd" fill="rgb(0%, 0%, 0%)" fill-opacity="1" d="M 302.410156 21.449219 L 298.75 21.449219 L 298.78125 18.390625 L 302.4375 18.390625 Z M 302.410156 21.449219 "/>
<path fill-rule="evenodd" fill="rgb(100%, 0%, 0%)" fill-opacity="1" stroke-width="0.06" stroke-linecap="butt" stroke-linejoin="miter" stroke="rgb(0%, 0%, 0%)" stroke-opacity="1" stroke-miterlimit="10" d="M -0.499997 0.0500131 C -0.499997 0.0223906 -0.477639 -0.000000857583 -0.450028 -0.000000857583 L -0.350027 -0.000000857583 C -0.322416 -0.000000857583 -0.299994 0.0223906 -0.299994 0.0500131 L -0.299994 0.250005 C -0.299994 0.277628 -0.277636 0.300019 -0.250025 0.300019 L -0.0600156 0.300019 C -0.0283047 0.300019 0.00174063 0.285921 0.0219844 0.261616 L 0.208022 0.0384027 C 0.228266 0.0140975 0.258311 -0.000000857583 0.290022 -0.000000857583 L 0.449986 -0.000000857583 C 0.469845 -0.000000857583 0.480672 0.0231561 0.467988 0.0384027 L 0.282014 0.261616 C 0.264461 0.282667 0.2676 0.314117 0.289061 0.331214 L 0.460941 0.468753 C 0.485605 0.488528 0.500019 0.518384 0.500019 0.550025 L 0.500019 0.750017 C 0.500019 0.781595 0.485605 0.811514 0.460941 0.831226 L 0.289061 0.968765 C 0.263756 0.988987 0.232366 1.000023 0.200014 1.000023 L -0.450028 1.000023 C -0.477639 1.000023 -0.499997 0.977632 -0.499997 0.950009 Z M -0.299994 0.522658 C -0.299994 0.510154 -0.289872 0.500011 -0.277316 0.500011 L 0.107316 0.500011 C 0.121922 0.500011 0.136016 0.505306 0.14697 0.515003 L 0.282975 0.634998 C 0.292008 0.642972 0.292008 0.657007 0.282975 0.664981 L 0.14697 0.784976 C 0.136016 0.794673 0.121922 0.800031 0.107316 0.800031 L -0.277316 0.800031 C -0.289872 0.800031 -0.299994 0.789824 -0.299994 0.777321 Z M -0.299994 0.522658 " transform="matrix(60.97561, 0, 0, -61.232893, 367.682927, 82.683541)"/>
<path fill-rule="evenodd" fill="rgb(0%, 0%, 0%)" fill-opacity="1" d="M 361.960938 21.449219 L 358.4375 21.449219 L 358.230469 18.390625 L 361.890625 18.390625 Z M 361.960938 21.449219 "/>
<path fill-rule="evenodd" fill="rgb(0%, 0%, 0%)" fill-opacity="1" d="M 392.050781 28.78125 L 391.996094 28.734375 L 391.964844 28.710938 L 391.9375 28.6875 L 391.90625 28.664062 L 391.878906 28.640625 L 391.851562 28.621094 L 391.820312 28.597656 L 391.792969 28.574219 L 391.761719 28.550781 L 391.707031 28.503906 L 391.675781 28.480469 L 391.621094 28.433594 L 391.589844 28.410156 L 391.5625 28.386719 L 391.53125 28.363281 L 391.476562 28.316406 L 391.445312 28.296875 L 391.390625 28.25 L 391.359375 28.226562 L 391.332031 28.203125 L 391.300781 28.179688 L 391.246094 28.132812 L 391.214844 28.109375 L 391.160156 28.0625 L 391.128906 28.039062 L 391.101562 28.015625 L 391.070312 27.996094 L 391.015625 27.949219 L 390.984375 27.925781 L 390.957031 27.902344 L 390.925781 27.878906 L 390.871094 27.832031 L 390.839844 27.808594 L 390.785156 27.761719 L 390.753906 27.738281 L 390.726562 27.714844 L 390.695312 27.691406 L 390.667969 27.671875 L 390.640625 27.648438 L 390.609375 27.625 L 390.554688 27.578125 L 390.523438 27.554688 L 390.496094 27.53125 L 390.464844 27.507812 L 390.410156 27.460938 L 390.378906 27.4375 L 390.324219 27.390625 L 390.292969 27.367188 L 390.265625 27.347656 L 390.234375 27.324219 L 390.179688 27.277344 L 390.148438 27.253906 L 390.09375 27.207031 L 390.0625 27.183594 L 390.035156 27.160156 L 390.003906 27.136719 L 389.949219 27.089844 L 389.917969 27.066406 L 389.890625 27.042969 L 389.859375 27.023438 L 389.804688 26.976562 L 389.773438 26.953125 L 389.71875 26.90625 L 389.6875 26.882812 L 389.660156 26.859375 L 389.628906 26.835938 L 389.574219 26.789062 L 389.542969 26.765625 L 389.488281 26.71875 L 389.457031 26.699219 L 389.429688 26.675781 L 389.398438 26.652344 L 389.34375 26.605469 L 389.3125 26.582031 L 389.257812 26.535156 L 389.226562 26.511719 L 389.199219 26.488281 L 396.738281 16.863281 L 399.59375 19.160156 Z M 392.050781 28.78125 "/>
<path fill-rule="evenodd" fill="rgb(0%, 0%, 0%)" fill-opacity="1" d="M 388.378906 82.683594 L 392.046875 82.683594 L 392.074219 85.746094 L 388.414062 85.746094 Z M 388.378906 82.683594 "/>
<path fill-rule="evenodd" fill="rgb(0%, 72%, 8%)" fill-opacity="1" stroke-width="0.06" stroke-linecap="butt" stroke-linejoin="miter" stroke="rgb(0%, 0%, 0%)" stroke-opacity="1" stroke-miterlimit="10" d="M -0.5 0.0499968 C -0.5 0.0223743 -0.477642 -0.0000171362 -0.450031 -0.0000171362 L 0.200011 -0.0000171362 C 0.232042 -0.0000171362 0.262728 0.0127415 0.285342 0.0353244 L 0.464653 0.214647 C 0.487267 0.237294 0.500016 0.267979 0.500016 0.300003 L 0.500016 0.699987 C 0.500016 0.732011 0.487267 0.762696 0.464653 0.785343 L 0.285342 0.964666 C 0.262728 0.987312 0.232042 1.000007 0.200011 1.000007 L -0.450031 1.000007 C -0.477642 1.000007 -0.5 0.977616 -0.5 0.949993 Z M -0.299997 0.218411 C -0.299997 0.208204 -0.291797 0.199975 -0.281611 0.199975 L 0.151644 0.199975 C 0.163367 0.199975 0.174706 0.204696 0.18297 0.212989 L 0.287008 0.316972 C 0.295336 0.325329 0.300013 0.33662 0.300013 0.348358 L 0.300013 0.651632 C 0.300013 0.66337 0.295336 0.674661 0.287008 0.683018 L 0.18297 0.787001 C 0.174706 0.795294 0.163367 0.800015 0.151644 0.800015 L -0.281611 0.800015 C -0.291797 0.800015 -0.299997 0.791786 -0.299997 0.781643 Z M -0.299997 0.218411 " transform="matrix(60.97561, 0, 0, -61.232893, 105.487805, 156.163013)"/>
<path fill-rule="evenodd" fill="rgb(0%, 0%, 0%)" fill-opacity="1" d="M 75 123.800781 L 75 127.476562 L 71.953125 127.382812 L 71.953125 123.710938 Z M 75 123.800781 "/>
<path fill-rule="evenodd" fill="rgb(0%, 0%, 0%)" fill-opacity="1" d="M 126.589844 100.8125 L 126.539062 100.761719 L 126.511719 100.738281 L 126.488281 100.710938 L 126.253906 100.476562 L 126.230469 100.449219 L 126.203125 100.425781 L 126.175781 100.398438 L 126.152344 100.371094 L 126.125 100.347656 L 126.097656 100.320312 L 126.074219 100.292969 L 126.046875 100.269531 L 126.023438 100.242188 L 125.996094 100.214844 L 125.96875 100.191406 L 125.945312 100.164062 L 125.917969 100.136719 L 125.890625 100.113281 L 125.867188 100.085938 L 125.839844 100.058594 L 125.8125 100.035156 L 125.789062 100.007812 L 125.632812 99.851562 L 125.605469 99.828125 L 125.582031 99.800781 L 125.347656 99.566406 L 125.324219 99.539062 L 125.296875 99.515625 L 125.269531 99.488281 L 125.246094 99.460938 L 125.21875 99.4375 L 125.191406 99.410156 L 125.167969 99.382812 L 125.140625 99.359375 L 125.117188 99.332031 L 125.089844 99.304688 L 125.0625 99.28125 L 125.039062 99.253906 L 125.011719 99.226562 L 124.984375 99.203125 L 124.960938 99.175781 L 124.933594 99.148438 L 124.90625 99.125 L 124.882812 99.097656 L 124.726562 98.941406 L 124.699219 98.917969 L 124.675781 98.890625 L 124.441406 98.65625 L 124.417969 98.628906 L 124.390625 98.605469 L 124.363281 98.578125 L 124.339844 98.550781 L 124.3125 98.527344 L 124.285156 98.5 L 124.261719 98.472656 L 124.234375 98.449219 L 124.207031 98.421875 L 124.183594 98.394531 L 124.15625 98.371094 L 124.132812 98.34375 L 124.105469 98.316406 L 124.078125 98.292969 L 124.054688 98.265625 L 124.027344 98.238281 L 126.167969 96.058594 L 128.753906 98.65625 Z M 126.589844 100.8125 "/>
<path fill-rule="evenodd" fill="rgb(100%, 0%, 0%)" fill-opacity="1" stroke-width="0.06" stroke-linecap="butt" stroke-linejoin="miter" stroke="rgb(0%, 0%, 0%)" stroke-opacity="1" stroke-miterlimit="10" d="M -0.499983 0.0499968 C -0.499983 0.0223743 -0.477625 -0.0000171362 -0.450014 -0.0000171362 L -0.350013 -0.0000171362 C -0.322402 -0.0000171362 -0.29998 0.0223743 -0.29998 0.0499968 L -0.29998 0.249989 C -0.29998 0.277611 -0.277622 0.300003 -0.250011 0.300003 L -0.0600016 0.300003 C -0.0282906 0.300003 0.00175469 0.285905 0.0219984 0.261599 L 0.207972 0.0383864 C 0.22828 0.0140812 0.258325 -0.0000171362 0.289972 -0.0000171362 L 0.45 -0.0000171362 C 0.469859 -0.0000171362 0.480686 0.0231398 0.468002 0.0383864 L 0.282028 0.261599 C 0.264411 0.282651 0.267614 0.314101 0.289075 0.331262 L 0.460955 0.468736 C 0.485619 0.488512 0.499969 0.518367 0.499969 0.550009 L 0.499969 0.750001 C 0.499969 0.781579 0.485619 0.811498 0.460955 0.83121 L 0.289075 0.968748 C 0.26377 0.988971 0.23238 1.000007 0.200028 1.000007 L -0.450014 1.000007 C -0.477625 1.000007 -0.499983 0.977616 -0.499983 0.949993 Z M -0.29998 0.522642 C -0.29998 0.510138 -0.289858 0.499995 -0.277302 0.499995 L 0.10733 0.499995 C 0.121936 0.499995 0.13603 0.505354 0.146984 0.514986 L 0.282989 0.634982 C 0.292022 0.642956 0.292022 0.657054 0.282989 0.665028 L 0.146984 0.785024 C 0.13603 0.794656 0.121936 0.800015 0.10733 0.800015 L -0.277302 0.800015 C -0.289858 0.800015 -0.29998 0.789872 -0.29998 0.777305 Z M -0.29998 0.522642 " transform="matrix(60.97561, 0, 0, -61.232893, 172.560976, 156.163013)"/>
<path fill-rule="evenodd" fill="rgb(0%, 0%, 0%)" fill-opacity="1" d="M 199.949219 104.6875 L 199.894531 104.640625 L 199.863281 104.617188 L 199.835938 104.59375 L 199.808594 104.574219 L 199.777344 104.550781 L 199.75 104.527344 L 199.71875 104.503906 L 199.664062 104.457031 L 199.632812 104.433594 L 199.578125 104.386719 L 199.546875 104.363281 L 199.519531 104.339844 L 199.488281 104.316406 L 199.433594 104.269531 L 199.402344 104.25 L 199.347656 104.203125 L 199.316406 104.179688 L 199.289062 104.15625 L 199.257812 104.132812 L 199.203125 104.085938 L 199.171875 104.0625 L 199.117188 104.015625 L 199.085938 103.992188 L 199.058594 103.96875 L 199.027344 103.945312 L 199 103.925781 L 198.972656 103.902344 L 198.941406 103.878906 L 198.914062 103.855469 L 198.882812 103.832031 L 198.828125 103.785156 L 198.796875 103.761719 L 198.742188 103.714844 L 198.710938 103.691406 L 198.683594 103.667969 L 198.652344 103.644531 L 198.625 103.621094 L 198.597656 103.601562 L 198.566406 103.578125 L 198.511719 103.53125 L 198.480469 103.507812 L 198.453125 103.484375 L 198.421875 103.460938 L 198.367188 103.414062 L 198.335938 103.390625 L 198.28125 103.34375 L 198.25 103.320312 L 198.222656 103.296875 L 198.191406 103.277344 L 198.136719 103.230469 L 198.105469 103.207031 L 198.050781 103.160156 L 198.019531 103.136719 L 197.992188 103.113281 L 197.960938 103.089844 L 197.90625 103.042969 L 197.875 103.019531 L 197.847656 102.996094 L 197.816406 102.976562 L 197.761719 102.929688 L 197.730469 102.90625 L 197.675781 102.859375 L 197.644531 102.835938 L 197.617188 102.8125 L 197.585938 102.789062 L 197.53125 102.742188 L 197.5 102.71875 L 197.445312 102.671875 L 197.414062 102.652344 L 197.386719 102.628906 L 197.355469 102.605469 L 197.300781 102.558594 L 197.269531 102.535156 L 197.214844 102.488281 L 197.183594 102.464844 L 197.15625 102.441406 L 197.125 102.417969 L 197.097656 102.394531 L 198.953125 99.964844 L 201.808594 102.257812 Z M 199.949219 104.6875 "/>
<path fill-rule="evenodd" fill="rgb(94.9%, 57.3%, 9.8%)" fill-opacity="1" stroke-width="0.06" stroke-linecap="butt" stroke-linejoin="miter" stroke="rgb(0%, 0%, 0%)" stroke-opacity="1" stroke-miterlimit="10" d="M -0.48347 0.0471899 C -0.491542 0.0240967 -0.474437 -0.0000171362 -0.45003 -0.0000171362 L -0.290002 -0.0000171362 C -0.260341 -0.0000171362 -0.234139 0.0194398 -0.225619 0.0478917 L -0.164375 0.252094 C -0.155855 0.280546 -0.129653 0.300003 -0.0999922 0.300003 L 0.100011 0.300003 C 0.129672 0.300003 0.155809 0.280546 0.164394 0.252094 L 0.225638 0.0478917 C 0.234158 0.0194398 0.260295 -0.0000171362 0.29002 -0.0000171362 L 0.449984 -0.0000171362 C 0.474456 -0.0000171362 0.491561 0.0240967 0.483489 0.0471899 L 0.166508 0.9528 C 0.156642 0.98106 0.129928 1.000007 0.100011 1.000007 L -0.0999922 1.000007 C -0.129973 1.000007 -0.156623 0.98106 -0.166489 0.9528 Z M -0.09365 0.519005 C -0.0967891 0.509628 -0.0898703 0.499995 -0.0800047 0.499995 L 0.0800234 0.499995 C 0.089825 0.499995 0.0968078 0.509628 0.0936688 0.519005 L 0.00635156 0.781005 C 0.00430156 0.787129 -0.00428281 0.787129 -0.00633281 0.781005 Z M -0.09365 0.519005 " transform="matrix(60.97561, 0, 0, -61.232893, 236.585366, 156.163013)"/>
<path fill-rule="evenodd" fill="rgb(0%, 0%, 0%)" fill-opacity="1" d="M 225.921875 99.28125 L 225.863281 99.457031 L 225.851562 99.488281 L 225.835938 99.523438 L 225.765625 99.734375 L 225.753906 99.765625 L 225.71875 99.871094 L 225.703125 99.90625 L 225.667969 100.011719 L 225.65625 100.042969 L 225.597656 100.21875 L 225.582031 100.253906 L 225.570312 100.289062 L 225.558594 100.320312 L 225.476562 100.566406 L 225.464844 100.597656 L 225.449219 100.632812 L 225.378906 100.84375 L 225.367188 100.875 L 225.332031 100.980469 L 225.316406 101.015625 L 225.28125 101.121094 L 225.269531 101.152344 L 225.210938 101.328125 L 225.195312 101.363281 L 225.183594 101.398438 L 225.171875 101.429688 L 225.078125 101.710938 L 225.0625 101.742188 L 224.980469 101.988281 L 224.96875 102.019531 L 224.945312 102.089844 L 224.929688 102.125 L 224.882812 102.265625 L 224.871094 102.296875 L 224.824219 102.4375 L 224.808594 102.472656 L 224.785156 102.542969 L 224.773438 102.574219 L 224.726562 102.714844 L 221.824219 101.777344 L 223.03125 98.308594 Z M 225.921875 99.28125 "/>
<path fill-rule="nonzero" fill="rgb(0%, 0%, 100%)" fill-opacity="1" stroke-width="0.06" stroke-linecap="butt" stroke-linejoin="miter" stroke="rgb(0%, 0%, 0%)" stroke-opacity="1" stroke-miterlimit="10" d="M -0.450016 1.000007 C -0.475897 1.000007 -0.495244 0.97634 -0.490183 0.95095 L -0.309783 0.0490399 C -0.304081 0.0205243 -0.279097 -0.0000171362 -0.250012 -0.0000171362 L -0.150011 -0.0000171362 C -0.121119 -0.0000171362 -0.0963906 0.0207795 -0.0913937 0.0492313 L -0.008625 0.522195 C -0.00695937 0.531828 0.00694219 0.531828 0.00860781 0.522195 L 0.0913766 0.0492313 C 0.0963734 0.0207795 0.121102 -0.0000171362 0.149994 -0.0000171362 L 0.249995 -0.0000171362 C 0.27908 -0.0000171362 0.304128 0.0205243 0.30983 0.0490399 L 0.490166 0.95095 C 0.495291 0.97634 0.47588 1.000007 0.449998 1.000007 L 0.349997 1.000007 C 0.321105 1.000007 0.296377 0.97921 0.29138 0.950759 L 0.208611 0.477795 C 0.206945 0.468162 0.193044 0.468162 0.191378 0.477795 L 0.108609 0.950759 C 0.103613 0.97921 0.0788844 1.000007 0.0499922 1.000007 L -0.0500094 1.000007 C -0.0789016 1.000007 -0.10363 0.97921 -0.108627 0.950759 L -0.191395 0.477795 C -0.193061 0.468162 -0.206898 0.468162 -0.208628 0.477795 L -0.291397 0.950759 C -0.296394 0.97921 -0.321122 1.000007 -0.350014 1.000007 Z M -0.450016 1.000007 " transform="matrix(60.97561, 0, 0, -61.232893, 291.463415, 156.163013)"/>
<path fill-rule="nonzero" fill="rgb(0%, 0%, 0%)" fill-opacity="1" d="M 317.972656 114.910156 L 317.976562 114.878906 L 317.992188 114.816406 L 317.996094 114.785156 L 318.003906 114.75 L 318.011719 114.71875 L 318.015625 114.6875 L 318.023438 114.65625 L 318.03125 114.621094 L 318.035156 114.589844 L 318.042969 114.558594 L 318.046875 114.527344 L 318.054688 114.492188 L 318.0625 114.460938 L 318.066406 114.429688 L 318.074219 114.398438 L 318.082031 114.363281 L 318.085938 114.332031 L 318.101562 114.269531 L 318.105469 114.234375 L 318.113281 114.203125 L 318.117188 114.171875 L 318.125 114.140625 L 318.132812 114.105469 L 318.136719 114.074219 L 318.152344 114.011719 L 318.15625 113.976562 L 318.171875 113.914062 L 318.175781 113.882812 L 318.183594 113.847656 L 318.191406 113.816406 L 318.195312 113.785156 L 318.203125 113.753906 L 318.207031 113.722656 L 318.214844 113.6875 L 318.222656 113.65625 L 318.226562 113.625 L 318.234375 113.59375 L 318.242188 113.558594 L 318.246094 113.527344 L 318.261719 113.464844 L 318.265625 113.429688 L 318.28125 113.367188 L 318.285156 113.335938 L 318.292969 113.300781 L 318.296875 113.269531 L 318.3125 113.207031 L 318.316406 113.171875 L 318.332031 113.109375 L 318.335938 113.078125 L 318.34375 113.042969 L 318.351562 113.011719 L 318.355469 112.980469 L 318.363281 112.949219 L 318.371094 112.914062 L 318.375 112.882812 L 318.382812 112.851562 L 318.386719 112.820312 L 318.394531 112.789062 L 318.402344 112.753906 L 318.40625 112.722656 L 318.421875 112.660156 L 318.425781 112.625 L 318.441406 112.5625 L 318.445312 112.53125 L 318.453125 112.496094 L 318.457031 112.464844 L 318.472656 112.402344 L 318.476562 112.367188 L 318.492188 112.304688 L 318.496094 112.273438 L 318.503906 112.238281 L 318.511719 112.207031 L 318.515625 112.175781 L 318.523438 112.144531 L 318.53125 112.109375 L 318.535156 112.078125 L 318.542969 112.046875 L 318.546875 112.015625 L 318.554688 111.980469 L 318.5625 111.949219 L 318.566406 111.917969 L 318.574219 111.886719 L 318.582031 111.851562 L 318.585938 111.820312 L 318.601562 111.757812 L 318.605469 111.726562 L 321.640625 112.097656 L 320.921875 115.703125 Z M 317.972656 114.910156 "/>
<path fill-rule="nonzero" fill="rgb(0%, 0%, 0%)" fill-opacity="1" d="M 313.050781 139.613281 L 313.058594 139.574219 L 313.066406 139.53125 L 313.074219 139.492188 L 313.085938 139.453125 L 313.09375 139.414062 L 313.101562 139.371094 L 313.117188 139.292969 L 313.125 139.25 L 313.140625 139.171875 L 313.148438 139.128906 L 313.171875 139.011719 L 313.179688 138.96875 L 313.195312 138.890625 L 313.203125 138.847656 L 313.21875 138.769531 L 313.226562 138.726562 L 313.238281 138.6875 L 313.253906 138.609375 L 313.261719 138.566406 L 313.277344 138.488281 L 313.285156 138.445312 L 313.300781 138.367188 L 313.308594 138.324219 L 313.324219 138.246094 L 313.332031 138.203125 L 313.355469 138.085938 L 313.363281 138.042969 L 313.378906 137.964844 L 313.390625 137.921875 L 313.40625 137.84375 L 313.414062 137.800781 L 313.4375 137.683594 L 313.445312 137.640625 L 313.460938 137.5625 L 313.46875 137.519531 L 313.484375 137.441406 L 313.492188 137.398438 L 313.515625 137.28125 L 313.523438 137.238281 L 313.539062 137.160156 L 313.550781 137.117188 L 313.566406 137.039062 L 313.574219 136.996094 L 313.597656 136.878906 L 313.605469 136.835938 L 313.621094 136.757812 L 313.628906 136.714844 L 313.644531 136.636719 L 313.652344 136.59375 L 313.667969 136.515625 L 313.675781 136.472656 L 313.691406 136.394531 L 313.703125 136.355469 L 313.710938 136.3125 L 313.726562 136.234375 L 313.734375 136.191406 L 313.75 136.113281 L 313.757812 136.070312 L 313.78125 135.953125 L 313.789062 135.910156 L 313.804688 135.832031 L 313.8125 135.789062 L 313.828125 135.710938 L 313.835938 135.667969 L 313.84375 135.628906 L 325.730469 138.394531 L 325.015625 141.996094 Z M 313.050781 139.613281 "/>
<path fill-rule="nonzero" fill="rgb(0%, 0%, 0%)" fill-opacity="1" d="M 293.214844 94.929688 L 289.566406 94.929688 L 289.632812 91.867188 L 293.292969 91.867188 Z M 293.214844 94.929688 "/>
<path fill="none" stroke-width="0.06" stroke-linecap="butt" stroke-linejoin="miter" stroke="rgb(0%, 0%, 0%)" stroke-opacity="1" stroke-miterlimit="10" d="M 1.100006 1.044998 L 1.100006 1.049974 C 1.100006 1.250029 1.649983 1.320011 2.200023 1.320011 C 2.75 1.320011 3.299977 1.250029 3.299977 1.049974 L 3.299977 1.044998 " transform="matrix(60.97561, 0, 0, -61.232893, 32.317073, 82.683541)"/>
<path fill="none" stroke-width="0.06" stroke-linecap="butt" stroke-linejoin="miter" stroke="rgb(0%, 0%, 0%)" stroke-opacity="1" stroke-miterlimit="10" d="M 2.23372 0.689796 L 2.2375 0.69305 C 2.274977 0.726159 2.400027 0.796012 2.449995 0.796012 L 2.454992 0.796012 " transform="matrix(60.97561, 0, 0, -61.232893, 32.317073, 82.683541)"/>
<path fill="none" stroke-width="0.06" stroke-linecap="butt" stroke-linejoin="miter" stroke="rgb(0%, 0%, 0%)" stroke-opacity="1" stroke-miterlimit="10" d="M -0.0000109375 -0.0449752 L -0.0000109375 -0.0500148 C -0.0000109375 -0.449999 0.250025 -0.700005 0.650031 -0.700005 L 0.655028 -0.700005 " transform="matrix(60.97561, 0, 0, -61.232893, 32.317073, 82.683541)"/>
<path fill="none" stroke-width="0.06" stroke-linecap="butt" stroke-linejoin="miter" stroke="rgb(0%, 0%, 0%)" stroke-opacity="1" stroke-miterlimit="10" d="M 2.999972 -0.0449752 L 2.999972 -0.0500148 C 2.999972 -0.149979 2.787477 -0.261936 2.756214 -0.300978 L 2.753139 -0.304869 " transform="matrix(60.97561, 0, 0, -61.232893, 32.317073, 82.683541)"/>
<path fill="none" stroke-width="0.06" stroke-linecap="butt" stroke-linejoin="miter" stroke="rgb(0%, 0%, 0%)" stroke-opacity="1" stroke-miterlimit="10" d="M 1.556836 -0.243181 L 1.560359 -0.239672 C 1.77247 -0.0274958 2.4302 -0.0898219 2.530009 -0.0960098 C 2.829438 -0.114574 3.051734 -0.260341 3.117783 -0.283498 L 3.122523 -0.285157 " transform="matrix(60.97561, 0, 0, -61.232893, 32.317073, 82.683541)"/>
<path fill="none" stroke-width="0.06" stroke-linecap="butt" stroke-linejoin="miter" stroke="rgb(0%, 0%, 0%)" stroke-opacity="1" stroke-miterlimit="10" d="M 4.250023 -0.155019 L 4.250023 -0.149979 C 4.250023 -0.100029 4.399994 -0.100029 4.399994 -0.0500148 L 4.399994 -0.0449752 " transform="matrix(60.97561, 0, 0, -61.232893, 32.317073, 82.683541)"/>
<path fill="none" stroke-width="0.06" stroke-linecap="butt" stroke-linejoin="miter" stroke="rgb(0%, 0%, 0%)" stroke-opacity="1" stroke-miterlimit="10" d="M 4.399994 1.044998 L 4.399994 1.049974 C 4.399994 1.349994 5.375025 1.349994 5.375025 1.049974 L 5.375025 1.044998 " transform="matrix(60.97561, 0, 0, -61.232893, 32.317073, 82.683541)"/>
<path fill="none" stroke-width="0.06" stroke-linecap="butt" stroke-linejoin="miter" stroke="rgb(0%, 0%, 0%)" stroke-opacity="1" stroke-miterlimit="10" d="M 5.869972 -0.0449752 L 5.869972 -0.0500148 C 5.869972 -0.349971 5.425442 -0.647057 4.739013 -0.509837 L 4.734144 -0.508816 " transform="matrix(60.97561, 0, 0, -61.232893, 32.317073, 82.683541)"/>
</svg>
