<?xml version="1.0" encoding="UTF-8"?>
<svg xmlns="http://www.w3.org/2000/svg" xmlns:xlink="http://www.w3.org/1999/xlink" width="408" height="146" viewBox="0 0 408 146">
<path fill-rule="nonzero" fill="rgb(0%, 0%, 100%)" fill-opacity="1" stroke-width="0.05" stroke-linecap="butt" stroke-linejoin="miter" stroke="rgb(0%, 0%, 0%)" stroke-opacity="1" stroke-miterlimit="10" d="M -0.100018 0.0499873 C -0.100018 0.02241 -0.0776299 -0.00000849185 -0.0499971 -0.00000849185 L 0.04998 -0.00000849185 C 0.0776128 -0.00000849185 0.1 0.02241 0.1 0.0499873 L 0.1 0.749992 C 0.1 0.777632 0.122388 0.799987 0.150021 0.799987 L 0.450016 0.799987 C 0.477585 0.799987 0.499973 0.822406 0.499973 0.849983 L 0.499973 0.949975 C 0.499973 0.977615 0.477585 0.99997 0.450016 0.99997 L -0.449969 0.99997 C -0.477602 0.99997 -0.49999 0.977615 -0.49999 0.949975 L -0.49999 0.849983 C -0.49999 0.822406 -0.477602 0.799987 -0.449969 0.799987 L -0.149974 0.799987 C -0.122405 0.799987 -0.100018 0.777632 -0.100018 0.749992 Z M -0.100018 0.0499873 " transform="matrix(61.068702, 0, 0, -61.333333, 36.061069, 66.866667)"/>
<path fill-rule="nonzero" fill="rgb(100%, 100%, 0%)" fill-opacity="1" stroke-width="0.05" stroke-linecap="butt" stroke-linejoin="miter" stroke="rgb(0%, 0%, 0%)" stroke-opacity="1" stroke-miterlimit="10" d="M -0.499986 0.0499873 C -0.499986 0.02241 -0.477599 -0.00000849185 -0.45003 -0.00000849185 L 0.45002 -0.00000849185 C 0.477588 -0.00000849185 0.499976 0.02241 0.499976 0.0499873 L 0.499976 0.149979 C 0.499976 0.17762 0.477588 0.199975 0.45002 0.199975 L -0.190013 0.199975 C -0.217646 0.199975 -0.239969 0.222393 -0.239969 0.24997 L -0.239969 0.350025 C -0.239969 0.377603 -0.217646 0.400021 -0.190013 0.400021 L 0.45002 0.400021 C 0.477588 0.400021 0.499976 0.422376 0.499976 0.450017 L 0.499976 0.550008 C 0.499976 0.577586 0.477588 0.600004 0.45002 0.600004 L -0.190013 0.600004 C -0.217646 0.600004 -0.239969 0.622359 -0.239969 0.65 L -0.239969 0.749992 C -0.239969 0.777632 -0.217646 0.799987 -0.190013 0.799987 L 0.45002 0.799987 C 0.477588 0.799987 0.499976 0.822406 0.499976 0.849983 L 0.499976 0.949975 C 0.499976 0.977615 0.477588 0.99997 0.45002 0.99997 L -0.45003 0.99997 C -0.477599 0.99997 -0.499986 0.977615 -0.499986 0.949975 Z M -0.499986 0.0499873 " transform="matrix(61.068702, 0, 0, -61.333333, 103.236641, 66.866667)"/>
<path fill-rule="nonzero" fill="rgb(0%, 100%, 89%)" fill-opacity="1" stroke-width="0.05" stroke-linecap="butt" stroke-linejoin="miter" stroke="rgb(0%, 0%, 0%)" stroke-opacity="1" stroke-miterlimit="10" d="M -0.499983 0.0499873 C -0.499983 0.02241 -0.477595 -0.00000849185 -0.450026 -0.00000849185 L -0.349985 -0.00000849185 C -0.322417 -0.00000849185 -0.300029 0.02241 -0.300029 0.0499873 L -0.300029 0.630002 C -0.300029 0.647389 -0.278473 0.655541 -0.266895 0.642485 L 0.266892 0.0375042 C 0.287936 0.0136846 0.318191 -0.00000849185 0.349982 -0.00000849185 L 0.450023 -0.00000849185 C 0.477592 -0.00000849185 0.499979 0.02241 0.499979 0.0499873 L 0.499979 0.949975 C 0.499979 0.977615 0.477592 0.99997 0.450023 0.99997 L 0.349982 0.99997 C 0.322413 0.99997 0.300025 0.977615 0.300025 0.949975 L 0.300025 0.370024 C 0.300025 0.352573 0.278469 0.344421 0.266892 0.357477 L -0.266895 0.962521 C -0.287939 0.986341 -0.318195 0.99997 -0.349985 0.99997 L -0.450026 0.99997 C -0.477595 0.99997 -0.499983 0.977615 -0.499983 0.949975 Z M -0.499983 0.0499873 " transform="matrix(61.068702, 0, 0, -61.333333, 170.412214, 66.866667)"/>
<path fill-rule="nonzero" fill="rgb(58%, 0%, 100%)" fill-opacity="1" stroke-width="0.05" stroke-linecap="butt" stroke-linejoin="miter" stroke="rgb(0%, 0%, 0%)" stroke-opacity="1" stroke-miterlimit="10" d="M -0.499979 0.0499873 C -0.499979 0.02241 -0.477592 -0.00000849185 -0.450023 -0.00000849185 L 0.450026 -0.00000849185 C 0.477595 -0.00000849185 0.499983 0.02241 0.499983 0.0499873 L 0.499983 0.550008 C 0.499983 0.577586 0.477595 0.600004 0.450026 0.600004 L -0.250005 0.600004 C -0.277638 0.600004 -0.300025 0.622359 -0.300025 0.65 L -0.300025 0.749992 C -0.300025 0.777632 -0.277638 0.799987 -0.250005 0.799987 L 0.450026 0.799987 C 0.477595 0.799987 0.499983 0.822406 0.499983 0.849983 L 0.499983 0.949975 C 0.499983 0.977615 0.477595 0.99997 0.450026 0.99997 L -0.450023 0.99997 C -0.477592 0.99997 -0.499979 0.977615 -0.499979 0.949975 L -0.499979 0.450017 C -0.499979 0.422376 -0.477592 0.400021 -0.450023 0.400021 L 0.250008 0.400021 C 0.277641 0.400021 0.300029 0.377603 0.300029 0.350025 L 0.300029 0.24997 C 0.300029 0.222393 0.277641 0.199975 0.250008 0.199975 L -0.450023 0.199975 C -0.477592 0.199975 -0.499979 0.17762 -0.499979 0.149979 Z M -0.499979 0.0499873 " transform="matrix(61.068702, 0, 0, -61.333333, 237.587786, 66.866667)"/>
<path fill-rule="evenodd" fill="rgb(0%, 72%, 8%)" fill-opacity="1" stroke-width="0.05" stroke-linecap="butt" stroke-linejoin="miter" stroke="rgb(0%, 0%, 0%)" stroke-opacity="1" stroke-miterlimit="10" d="M -0.499976 0.0499873 C -0.499976 0.02241 -0.477588 -0.00000849185 -0.45002 -0.00000849185 L 0.45003 -0.00000849185 C 0.477599 -0.00000849185 0.499986 0.02241 0.499986 0.0499873 L 0.499986 0.949975 C 0.499986 0.977615 0.477599 0.99997 0.45003 0.99997 L -0.45002 0.99997 C -0.477588 0.99997 -0.499976 0.977615 -0.499976 0.949975 Z M -0.300022 0.259969 C -0.300022 0.226851 -0.273157 0.199975 -0.240023 0.199975 L 0.239969 0.199975 C 0.273167 0.199975 0.299968 0.226851 0.299968 0.259969 L 0.299968 0.739992 C 0.299968 0.773111 0.273167 0.799987 0.239969 0.799987 L -0.240023 0.799987 C -0.273157 0.799987 -0.300022 0.773111 -0.300022 0.739992 Z M -0.300022 0.259969 " transform="matrix(61.068702, 0, 0, -61.333333, 304.763359, 66.866667)"/>
<path fill-rule="evenodd" fill="rgb(100%, 0%, 0%)" fill-opacity="1" stroke-width="0.05" stroke-linecap="butt" stroke-linejoin="miter" stroke="rgb(0%, 0%, 0%)" stroke-opacity="1" stroke-miterlimit="10" d="M -0.499973 0.0499873 C -0.499973 0.02241 -0.477585 -0.00000849185 -0.450016 -0.00000849185 L -0.349975 -0.00000849185 C -0.322406 -0.00000849185 -0.300019 0.02241 -0.300019 0.0499873 L -0.300019 0.24997 C -0.300019 0.277611 -0.277631 0.30003 -0.249998 0.30003 L -0.0600225 0.30003 C -0.0282959 0.30003 0.00170361 0.285954 0.0219805 0.261562 L 0.20799 0.0383959 C 0.228267 0.0140667 0.258331 -0.00000849185 0.289993 -0.00000849185 L 0.449969 -0.00000849185 C 0.469862 -0.00000849185 0.480672 0.0231743 0.468007 0.0383959 L 0.281998 0.261562 C 0.264407 0.282706 0.267605 0.314105 0.289034 0.331237 L 0.460971 0.468742 C 0.485662 0.488485 0.49999 0.518419 0.49999 0.550008 L 0.49999 0.749992 C 0.49999 0.781581 0.485662 0.811515 0.460971 0.831258 L 0.289034 0.968763 C 0.263768 0.989016 0.232361 0.99997 0.199995 0.99997 L -0.450016 0.99997 C -0.477585 0.99997 -0.499973 0.977615 -0.499973 0.949975 Z M -0.300019 0.522686 C -0.300019 0.510139 -0.289848 0.500013 -0.277311 0.500013 L 0.10731 0.500013 C 0.121958 0.500013 0.13603 0.505363 0.147032 0.51498 L 0.283021 0.634969 C 0.29204 0.642994 0.29204 0.657006 0.283021 0.665031 L 0.147032 0.78502 C 0.13603 0.794637 0.121958 0.799987 0.10731 0.799987 L -0.277311 0.799987 C -0.289848 0.799987 -0.300019 0.789861 -0.300019 0.777314 Z M -0.300019 0.522686 " transform="matrix(61.068702, 0, 0, -61.333333, 371.938931, 66.866667)"/>
<path fill-rule="evenodd" fill="rgb(0%, 72%, 8%)" fill-opacity="1" stroke-width="0.05" stroke-linecap="butt" stroke-linejoin="miter" stroke="rgb(0%, 0%, 0%)" stroke-opacity="1" stroke-miterlimit="10" d="M -0.500009 0.0500255 C -0.500009 0.0223845 -0.477622 0.0000297215 -0.449989 0.0000297215 L 0.200022 0.0000297215 C 0.232004 0.0000297215 0.262708 0.0127038 0.285351 0.035377 L 0.464645 0.214661 C 0.487288 0.237271 0.500017 0.267969 0.500017 0.300004 L 0.500017 0.69997 C 0.500017 0.732006 0.487288 0.762704 0.464645 0.785377 L 0.285351 0.964661 C 0.262708 0.987271 0.232004 1.000008 0.200022 1.000008 L -0.449989 1.000008 C -0.477622 1.000008 -0.500009 0.97759 -0.500009 0.950013 Z M -0.299991 0.218355 C -0.299991 0.208229 -0.29174 0.200013 -0.281633 0.200013 L 0.151601 0.200013 C 0.16337 0.200013 0.174692 0.204662 0.183007 0.213005 L 0.287014 0.317009 C 0.29533 0.325352 0.299999 0.336625 0.299999 0.348408 L 0.299999 0.65163 C 0.299999 0.663413 0.29533 0.674686 0.287014 0.683029 L 0.183007 0.786969 C 0.174692 0.795312 0.16337 0.800025 0.151601 0.800025 L -0.281633 0.800025 C -0.29174 0.800025 -0.299991 0.791746 -0.299991 0.781619 Z M -0.299991 0.218355 " transform="matrix(61.068702, 0, 0, -61.333333, 109.343511, 140.466667)"/>
<path fill-rule="evenodd" fill="rgb(100%, 0%, 0%)" fill-opacity="1" stroke-width="0.05" stroke-linecap="butt" stroke-linejoin="miter" stroke="rgb(0%, 0%, 0%)" stroke-opacity="1" stroke-miterlimit="10" d="M -0.500006 0.0500255 C -0.500006 0.0223845 -0.477618 0.0000297215 -0.449985 0.0000297215 L -0.350008 0.0000297215 C -0.322375 0.0000297215 -0.299988 0.0223845 -0.299988 0.0500255 L -0.299988 0.250008 C -0.299988 0.277586 -0.2776 0.300004 -0.250031 0.300004 L -0.0599917 0.300004 C -0.0283291 0.300004 0.00173438 0.285929 0.0220112 0.2616 L 0.208021 0.0384341 C 0.228298 0.0140413 0.258297 0.0000297215 0.290024 0.0000297215 L 0.45 0.0000297215 C 0.469829 0.0000297215 0.480703 0.0231488 0.467974 0.0384341 L 0.282028 0.2616 C 0.264438 0.282681 0.267636 0.314079 0.289064 0.331212 L 0.460938 0.46878 C 0.485628 0.488523 0.500021 0.518393 0.500021 0.549983 L 0.500021 0.75003 C 0.500021 0.781619 0.485628 0.811489 0.460938 0.831233 L 0.289064 0.968737 C 0.263798 0.98899 0.232392 1.000008 0.200025 1.000008 L -0.449985 1.000008 C -0.477618 1.000008 -0.500006 0.97759 -0.500006 0.950013 Z M -0.299988 0.52266 C -0.299988 0.510177 -0.289881 0.499987 -0.277344 0.499987 L 0.10734 0.499987 C 0.121924 0.499987 0.136061 0.505337 0.146999 0.515018 L 0.282988 0.635008 C 0.292007 0.642969 0.292007 0.657044 0.282988 0.665005 L 0.146999 0.784995 C 0.136061 0.794676 0.121924 0.800025 0.10734 0.800025 L -0.277344 0.800025 C -0.289881 0.800025 -0.299988 0.789835 -0.299988 0.777352 Z M -0.299988 0.52266 " transform="matrix(61.068702, 0, 0, -61.333333, 176.519084, 140.466667)"/>
<path fill-rule="evenodd" fill="rgb(94.9%, 57.3%, 9.8%)" fill-opacity="1" stroke-width="0.05" stroke-linecap="butt" stroke-linejoin="miter" stroke="rgb(0%, 0%, 0%)" stroke-opacity="1" stroke-miterlimit="10" d="M -0.483456 0.0472232 C -0.49158 0.0241041 -0.474437 0.0000297215 -0.450002 0.0000297215 L -0.290026 0.0000297215 C -0.260347 0.0000297215 -0.234185 0.0194548 -0.225614 0.0478601 L -0.164335 0.25211 C -0.155828 0.280515 -0.129667 0.300004 -0.0999868 0.300004 L 0.100031 0.300004 C 0.129647 0.300004 0.155809 0.280515 0.16438 0.25211 L 0.225658 0.0478601 C 0.234166 0.0194548 0.260327 0.0000297215 0.290007 0.0000297215 L 0.449983 0.0000297215 C 0.474417 0.0000297215 0.49156 0.0241041 0.4835 0.0472232 L 0.166491 0.952815 C 0.15664 0.981093 0.129967 1.000008 0.100031 1.000008 L -0.0999868 1.000008 C -0.129922 1.000008 -0.156596 0.981093 -0.16651 0.952815 Z M -0.0936543 0.518967 C -0.0967886 0.509668 -0.0898164 0.499987 -0.0800298 0.499987 L 0.0800103 0.499987 C 0.0898608 0.499987 0.096769 0.509668 0.0936987 0.518967 L 0.00632275 0.781046 C 0.00427588 0.787097 -0.00429541 0.787097 -0.00634229 0.781046 Z M -0.0936543 0.518967 " transform="matrix(61.068702, 0, 0, -61.333333, 240.641221, 140.466667)"/>
<path fill-rule="nonzero" fill="rgb(0%, 0%, 100%)" fill-opacity="1" stroke-width="0.05" stroke-linecap="butt" stroke-linejoin="miter" stroke="rgb(0%, 0%, 0%)" stroke-opacity="1" stroke-miterlimit="10" d="M -0.450017 1.000008 C -0.475859 1.000008 -0.49524 0.976316 -0.490187 0.950968 L -0.309806 0.0490065 C -0.304113 0.0205375 -0.279103 0.0000297215 -0.249999 0.0000297215 L -0.150022 0.0000297215 C -0.12111 0.0000297215 -0.0963555 0.0207923 -0.0913662 0.0492612 L -0.0085957 0.522151 C -0.00693262 0.531832 0.00694775 0.531832 0.00861084 0.522151 L 0.0913813 0.0492612 C 0.0963706 0.0207923 0.121061 0.0000297215 0.149973 0.0000297215 L 0.250014 0.0000297215 C 0.279054 0.0000297215 0.304128 0.0205375 0.309821 0.0490065 L 0.490202 0.950968 C 0.495255 0.976316 0.475874 1.000008 0.449968 1.000008 L 0.349991 1.000008 C 0.321079 1.000008 0.296389 0.979246 0.291399 0.950777 L 0.208629 0.477824 C 0.206902 0.468143 0.193085 0.468143 0.191358 0.477824 L 0.108588 0.950777 C 0.103663 0.979246 0.0789082 1.000008 0.0499961 1.000008 L -0.049981 1.000008 C -0.0788931 1.000008 -0.103647 0.979246 -0.108637 0.950777 L -0.191407 0.477824 C -0.19307 0.468143 -0.206951 0.468143 -0.208614 0.477824 L -0.291384 0.950777 C -0.296374 0.979246 -0.321064 1.000008 -0.349976 1.000008 Z M -0.450017 1.000008 " transform="matrix(61.068702, 0, 0, -61.333333, 295.603053, 140.466667)"/>
</svg>
